<svg xmlns="http://www.w3.org/2000/svg" xmlns:xlink="http://www.w3.org/1999/xlink" version="1.1" width="256" height="256" viewBox="0 0 256 256" xml:space="preserve">

<defs>
</defs>
<g style="stroke: none; stroke-width: 0; stroke-dasharray: none; stroke-linecap: butt; stroke-linejoin: miter; stroke-miterlimit: 10; fill: none; fill-rule: nonzero; opacity: 1;" transform="translate(1.4065934065934016 1.4065934065934016) scale(2.81 2.81)" >
	<path d="M 44.674 81.777 c -18.353 0 -33.284 -14.93 -33.284 -33.283 S 26.321 15.21 44.674 15.21 c 18.352 0 33.284 14.931 33.284 33.284 S 63.026 81.777 44.674 81.777 z M 44.674 18.192 c -16.708 0 -30.301 13.593 -30.301 30.301 s 13.593 30.3 30.301 30.3 c 16.708 0 30.301 -13.592 30.301 -30.3 S 61.382 18.192 44.674 18.192 z" style="stroke: none; stroke-width: 1; stroke-dasharray: none; stroke-linecap: butt; stroke-linejoin: miter; stroke-miterlimit: 10; fill: #a57750; fill-rule: nonzero; opacity: 1;" transform=" matrix(1 0 0 1 0 0) " stroke-linecap="round" />
	<path d="M 23.06 49.985 h -2.139 c -0.824 0 -1.491 -0.668 -1.491 -1.491 c 0 -0.823 0.668 -1.491 1.491 -1.491 h 2.139 c 0.824 0 1.491 0.668 1.491 1.491 C 24.551 49.317 23.884 49.985 23.06 49.985 z" style="stroke: none; stroke-width: 1; stroke-dasharray: none; stroke-linecap: butt; stroke-linejoin: miter; stroke-miterlimit: 10; fill: #a57750; fill-rule: nonzero; opacity: 1;" transform=" matrix(1 0 0 1 0 0) " stroke-linecap="round" />
	<path d="M 69.104 49.985 h -2.138 c -0.823 0 -1.491 -0.668 -1.491 -1.491 c 0 -0.823 0.668 -1.491 1.491 -1.491 h 2.138 c 0.823 0 1.491 0.668 1.491 1.491 C 70.595 49.317 69.927 49.985 69.104 49.985 z" style="stroke: none; stroke-width: 1; stroke-dasharray: none; stroke-linecap: butt; stroke-linejoin: miter; stroke-miterlimit: 10; fill: #a57750; fill-rule: nonzero; opacity: 1;" transform=" matrix(1 0 0 1 0 0) " stroke-linecap="round" />
	<path d="M 45.012 74.076 c -0.824 0 -1.491 -0.668 -1.491 -1.491 v -2.139 c 0 -0.823 0.668 -1.491 1.491 -1.491 s 1.491 0.668 1.491 1.491 v 2.139 C 46.504 73.408 45.836 74.076 45.012 74.076 z" style="stroke: none; stroke-width: 1; stroke-dasharray: none; stroke-linecap: butt; stroke-linejoin: miter; stroke-miterlimit: 10; fill: #a57750; fill-rule: nonzero; opacity: 1;" transform=" matrix(1 0 0 1 0 0) " stroke-linecap="round" />
	<path d="M 45.012 28.032 c -0.824 0 -1.491 -0.668 -1.491 -1.491 v -2.139 c 0 -0.824 0.668 -1.491 1.491 -1.491 s 1.491 0.668 1.491 1.491 v 2.139 C 46.504 27.364 45.836 28.032 45.012 28.032 z" style="stroke: none; stroke-width: 1; stroke-dasharray: none; stroke-linecap: butt; stroke-linejoin: miter; stroke-miterlimit: 10; fill: #a57750; fill-rule: nonzero; opacity: 1;" transform=" matrix(1 0 0 1 0 0) " stroke-linecap="round" />
	<path d="M 60.491 41.687 c -0.325 -0.756 -1.201 -1.107 -1.959 -0.781 l -9.233 3.973 c -1.077 -1.375 -2.747 -2.263 -4.625 -2.263 c -0.759 0 -1.482 0.149 -2.148 0.412 L 31.2 27.541 c -0.487 -0.666 -1.421 -0.809 -2.084 -0.324 c -0.665 0.486 -0.81 1.42 -0.324 2.084 l 11.325 15.488 c -0.824 1.012 -1.32 2.301 -1.32 3.705 c 0 3.24 2.636 5.876 5.877 5.876 s 5.877 -2.636 5.877 -5.876 c 0 -0.298 -0.029 -0.588 -0.072 -0.874 l 9.232 -3.973 C 60.467 43.321 60.817 42.444 60.491 41.687 z M 44.674 51.387 c -1.596 0 -2.894 -1.298 -2.894 -2.893 c 0 -1.596 1.298 -2.894 2.894 -2.894 s 2.894 1.298 2.894 2.894 C 47.568 50.089 46.27 51.387 44.674 51.387 z" style="stroke: none; stroke-width: 1; stroke-dasharray: none; stroke-linecap: butt; stroke-linejoin: miter; stroke-miterlimit: 10; fill: #a57750; fill-rule: nonzero; opacity: 1;" transform=" matrix(1 0 0 1 0 0) " stroke-linecap="round" />
	<path d="M 78.761 72.422 c 12.742 -18.2 8.674 -43.212 -8.918 -56.493 l 2.473 -3.532 l 6.097 4.269 c 0.26 0.183 0.558 0.27 0.854 0.27 c 0.47 0 0.932 -0.222 1.222 -0.636 l 0.743 -1.061 c 2.431 -3.472 1.584 -8.273 -1.888 -10.705 l -4.49 -3.143 c -1.682 -1.178 -3.72 -1.631 -5.743 -1.273 c -2.022 0.356 -3.783 1.479 -4.961 3.16 L 63.409 4.34 c -0.227 0.324 -0.316 0.725 -0.248 1.114 c 0.069 0.39 0.289 0.736 0.614 0.963 l 6.098 4.27 l -2.472 3.53 c -8.768 -5.688 -19.197 -7.823 -29.543 -6 c -5.522 0.974 -10.68 3.019 -15.248 5.979 l -2.458 -3.51 l 6.098 -4.27 c 0.324 -0.227 0.545 -0.573 0.613 -0.963 c 0.069 -0.389 -0.02 -0.79 -0.247 -1.114 L 25.873 3.28 c -2.431 -3.471 -7.232 -4.317 -10.704 -1.887 L 10.68 4.535 c -1.682 1.178 -2.805 2.94 -3.161 4.962 c -0.356 2.022 0.096 4.062 1.273 5.743 l 0.743 1.061 c 0.29 0.415 0.752 0.636 1.223 0.636 c 0.295 0 0.594 -0.087 0.854 -0.27 l 6.097 -4.269 l 2.461 3.515 c -3.388 2.566 -6.398 5.665 -8.906 9.248 c -6.312 9.014 -8.736 19.947 -6.825 30.784 c 1.825 10.346 7.398 19.415 15.742 25.708 l -4.196 5.993 c -0.472 0.675 -0.308 1.605 0.367 2.077 c 0.26 0.183 0.559 0.27 0.854 0.27 c 0.47 0 0.933 -0.221 1.223 -0.636 l 4.191 -5.986 C 29.34 87.731 37.038 90 44.926 90 c 2.404 0 4.825 -0.211 7.241 -0.636 c 5.523 -0.974 10.68 -3.019 15.25 -5.979 l 4.181 5.972 c 0.29 0.415 0.753 0.636 1.222 0.636 c 0.296 0 0.594 -0.087 0.854 -0.27 c 0.675 -0.472 0.839 -1.402 0.366 -2.077 l -4.185 -5.977 C 73.243 79.103 76.253 76.004 78.761 72.422 z M 69.631 3.057 c 1.24 -0.219 2.486 0.059 3.514 0.779 l 4.49 3.143 c 2.07 1.45 2.615 4.278 1.264 6.387 L 66.711 4.832 C 67.429 3.891 68.458 3.263 69.631 3.057 z M 11.126 13.366 c -0.639 -0.997 -0.876 -2.179 -0.669 -3.351 c 0.218 -1.237 0.905 -2.315 1.934 -3.036 l 4.489 -3.143 c 0.819 -0.573 1.759 -0.849 2.691 -0.849 c 1.422 0 2.825 0.642 3.744 1.845 L 11.126 13.366 z M 67.107 79.997 c -0.059 0.031 -0.119 0.059 -0.175 0.098 c -0.039 0.027 -0.07 0.061 -0.106 0.091 c -4.487 3.121 -9.635 5.262 -15.178 6.24 c -10.052 1.772 -20.195 -0.476 -28.556 -6.331 C 14.731 74.24 9.149 65.48 7.377 55.427 c -1.772 -10.053 0.476 -20.194 6.331 -28.556 c 2.576 -3.679 5.715 -6.818 9.278 -9.333 c 0.035 -0.02 0.073 -0.029 0.107 -0.053 c 0.038 -0.026 0.068 -0.059 0.102 -0.088 c 4.488 -3.123 9.636 -5.265 15.181 -6.243 c 2.242 -0.395 4.487 -0.591 6.718 -0.591 c 7.768 0 15.34 2.372 21.837 6.92 c 0.001 0.001 0.001 0.001 0.002 0.002 c 0.001 0 0.001 0.001 0.002 0.001 c 17.259 12.087 21.468 35.962 9.383 53.224 C 73.758 74.367 70.643 77.491 67.107 79.997 z" style="stroke: none; stroke-width: 1; stroke-dasharray: none; stroke-linecap: butt; stroke-linejoin: miter; stroke-miterlimit: 10; fill: #a57750; fill-rule: nonzero; opacity: 1;" transform=" matrix(1 0 0 1 0 0) " stroke-linecap="round" />
</g>
</svg>