<?xml version="1.0" encoding="utf-8"?>
<!-- Generator: Adobe Illustrator 18.0.0, SVG Export Plug-In . SVG Version: 6.00 Build 0)  -->
<!DOCTYPE svg PUBLIC "-//W3C//DTD SVG 1.1//EN" "http://www.w3.org/Graphics/SVG/1.1/DTD/svg11.dtd">
<svg version="1.1" id="Layer_1" xmlns="http://www.w3.org/2000/svg" xmlns:xlink="http://www.w3.org/1999/xlink" x="0px" y="0px"
	 width="264.5px" height="101.8px" viewBox="0 272.3 264.5 101.8" enable-background="new 0 272.3 264.5 101.8"
	 xml:space="preserve">
<g>
	<g>
		<g>
			<g>
				<g>
					
						<linearGradient id="SVGID_1_" gradientUnits="userSpaceOnUse" x1="169.5445" y1="772.7017" x2="141.1165" y2="626.6132" gradientTransform="matrix(1 0 0 1 0 -300.4375)">
						<stop  offset="0" style="stop-color:#3F7EA6"/>
						<stop  offset="1" style="stop-color:#A8D0DA"/>
					</linearGradient>
					<path fill="url(#SVGID_1_)" d="M21.8,382.3c-2.2,7.9-3,27.4-6.6,36.9c95,19.6,160.8,17,257,4.2c-2.2-48.3-4.4-97,3.7-144.7
						c-61.7,4-44.5,40.2-72.5,47.5c-29.9,7.7-57.2-22.9-102.6-11.4C60.5,325,26.9,364.6,21.8,382.3z"/>
				</g>
				<g>
					
						<linearGradient id="SVGID_2_" gradientUnits="userSpaceOnUse" x1="145.7841" y1="631.0822" x2="126.8357" y2="695.1843" gradientTransform="matrix(1 0 0 1 0 -300.4375)">
						<stop  offset="0" style="stop-color:#D9E7E8"/>
						<stop  offset="1" style="stop-color:#F9F9F9"/>
					</linearGradient>
					<path fill="url(#SVGID_2_)" d="M-8.4,368.6c-2.3,11,13.4,9.6,20.3,9.6c13.6,0,27.1,0,40.7,0c27.4,0,54.9,0.3,82.4,1
						c46.5,1.2,93,3.7,139.4,0.2c0.1-4.9,0.1-9.7,0.2-14.6c-26.1,0.9-52.4,1.7-78.3-2c-27.2-3.9-53.4-12.9-79.3-22.2
						c-10-3.7-20.1-7.4-30.6-9.7c-8.6-1.9-17.3-2.8-26-2.7c-16.3,0.2-32.9,3.9-46.5,12.9C5,347-6.2,357.7-8.4,368.6z"/>
				</g>
			</g>
		</g>
	</g>
</g>
</svg>
