<svg xmlns="http://www.w3.org/2000/svg" xmlns:xlink="http://www.w3.org/1999/xlink" version="1.1" width="256" height="256" viewBox="0 0 256 256" xml:space="preserve">

<defs>
</defs>
<g style="stroke: none; stroke-width: 0; stroke-dasharray: none; stroke-linecap: butt; stroke-linejoin: miter; stroke-miterlimit: 10; fill: none; fill-rule: nonzero; opacity: 1;" transform="translate(1.4065934065934016 1.4065934065934016) scale(2.81 2.81)" >
	<path d="M 45 1.802 c 16.583 0 30.075 13.491 30.075 30.075 c 0 7.102 -2.538 14.004 -7.145 19.434 L 45 78.317 L 22.07 51.311 c -4.608 -5.43 -7.145 -12.332 -7.145 -19.434 C 14.925 15.294 28.417 1.802 45 1.802 M 45 45.692 c 8.222 0 14.912 -6.689 14.912 -14.912 c 0 -8.222 -6.689 -14.912 -14.912 -14.912 S 30.088 22.557 30.088 30.78 C 30.088 39.002 36.778 45.692 45 45.692 M 45 0 C 27.395 0 13.123 14.272 13.123 31.877 c 0 7.86 2.858 15.043 7.573 20.6 L 45 81.101 l 24.304 -28.624 c 4.716 -5.558 7.573 -12.741 7.573 -20.6 C 76.877 14.272 62.605 0 45 0 L 45 0 z M 45 43.889 c -7.24 0 -13.11 -5.869 -13.11 -13.11 c 0 -7.24 5.869 -13.11 13.11 -13.11 s 13.11 5.869 13.11 13.11 C 58.11 38.02 52.24 43.889 45 43.889 L 45 43.889 z" style="stroke: none; stroke-width: 1; stroke-dasharray: none; stroke-linecap: butt; stroke-linejoin: miter; stroke-miterlimit: 10; fill: #a57750; fill-rule: nonzero; opacity: 1;" transform=" matrix(1 0 0 1 0 0) " stroke-linecap="round" />
	<polygon points="64.35,70.84 57.4,70.84 55.86,72.65 63.27,72.65 71.61,88.2 18.39,88.2 26.72,72.65 34.13,72.65 32.59,70.84 25.64,70.84 15.38,90 74.63,90 " style="stroke: none; stroke-width: 1; stroke-dasharray: none; stroke-linecap: butt; stroke-linejoin: miter; stroke-miterlimit: 10; fill: #a57750; fill-rule: nonzero; opacity: 1;" transform="  matrix(1 0 0 1 0 0) "/>
</g>
</svg>